<svg width="14" height="14" viewBox="0 0 14 14" fill="none" xmlns="http://www.w3.org/2000/svg">
<path id="&#238;&#174;&#150;" d="M6.56 9.06667C6.98667 9.24444 7.39556 9.49333 7.78667 9.81333C8.17778 10.0978 8.49778 10.4356 8.74667 10.8267C9.31556 11.6444 9.6 12.5511 9.6 13.5467V13.9733H8.74667V13.5467C8.74667 13.0133 8.64 12.5156 8.42667 12.0533C8.24889 11.5556 7.96444 11.1289 7.57333 10.7733C7.21778 10.4178 6.79111 10.1333 6.29333 9.92C5.83111 9.70667 5.33333 9.6 4.8 9.6C4.26667 9.6 3.75111 9.70667 3.25333 9.92C2.79111 10.0978 2.38222 10.3822 2.02667 10.7733C1.67111 11.1289 1.38667 11.5556 1.17333 12.0533C0.96 12.5156 0.853333 13.0133 0.853333 13.5467V13.9733H0V13.5467C0 12.5511 0.284444 11.6444 0.853333 10.8267C1.42222 10.0089 2.15111 9.42222 3.04 9.06667C2.86222 8.92444 2.68444 8.76444 2.50667 8.58667C2.32889 8.40889 2.18667 8.21333 2.08 8C1.97333 7.75111 1.88444 7.52 1.81333 7.30667C1.77778 7.05778 1.76 6.80889 1.76 6.56C1.76 6.13333 1.83111 5.72444 1.97333 5.33333C2.29333 4.58667 2.84444 4.05333 3.62667 3.73333C3.98222 3.55556 4.37333 3.46667 4.8 3.46667C5.22667 3.46667 5.61778 3.55556 5.97333 3.73333C6.75556 4.05333 7.30667 4.58667 7.62667 5.33333C7.87556 5.97333 7.92889 6.63111 7.78667 7.30667C7.71556 7.52 7.60889 7.73333 7.46667 7.94667C7.36 8.16 7.23556 8.37333 7.09333 8.58667C6.95111 8.76444 6.77333 8.92444 6.56 9.06667ZM4.8 8.74667C5.08444 8.74667 5.36889 8.69333 5.65333 8.58667C6.18667 8.33778 6.57778 7.94667 6.82667 7.41333C6.93333 7.12889 6.98667 6.84445 6.98667 6.56C6.98667 5.95556 6.77333 5.44 6.34667 5.01333C6.13333 4.8 5.88444 4.64 5.6 4.53333C5.35111 4.42667 5.08444 4.37333 4.8 4.37333C4.51556 4.37333 4.23111 4.42667 3.94667 4.53333C3.41333 4.78222 3.02222 5.17333 2.77333 5.70667C2.66667 5.95556 2.61333 6.24 2.61333 6.56C2.61333 6.84445 2.66667 7.12889 2.77333 7.41333C2.88 7.66222 3.04 7.89333 3.25333 8.10667C3.68 8.53333 4.19556 8.74667 4.8 8.74667ZM13.9733 0V6.98667H12.2133L9.6 9.6V6.98667H8.74667V6.13333H10.5067V7.52L11.8933 6.13333H13.12V0.853333H4.37333V2.45333L3.94667 2.50667C3.76889 2.54222 3.60889 2.57778 3.46667 2.61333V0H13.9733Z" fill="#8EE3F0"/>
</svg>
